<svg xmlns="http://www.w3.org/2000/svg" width="186" height="122" viewBox="0 0 186 122">
  <g id="post-lay-4" transform="translate(-1078 -415)">
    <g id="Group_18" data-name="Group 18" transform="translate(1077.882 415)">
      <rect id="Rectangle_128" data-name="Rectangle 128" width="186" height="68" rx="4" transform="translate(0.118)" fill="#037fff"/>
      <rect id="Rectangle_129" data-name="Rectangle 129" width="103" height="4" rx="2" transform="translate(6.118 47)" fill="#fff"/>
      <rect id="Rectangle_130" data-name="Rectangle 130" width="72" height="4" rx="2" transform="translate(6.118 55)" fill="#fff"/>
    </g>
    <g id="Group_19" data-name="Group 19" transform="translate(1077.882 479.496)">
      <rect id="Rectangle_128-2" data-name="Rectangle 128" width="58" height="49" rx="4" transform="translate(0.118 8.504)" fill="#037fff"/>
      <rect id="Rectangle_129-2" data-name="Rectangle 129" width="38" height="3" rx="1.5" transform="translate(6.118 38.504)" fill="#fff"/>
      <rect id="Rectangle_130-2" data-name="Rectangle 130" width="31" height="3" rx="1.5" transform="translate(6.118 44.504)" fill="#fff"/>
    </g>
    <g id="Group_20" data-name="Group 20" transform="translate(1141.882 479.496)">
      <rect id="Rectangle_128-3" data-name="Rectangle 128" width="58" height="49" rx="4" transform="translate(0.118 8.504)" fill="#037fff"/>
      <rect id="Rectangle_129-3" data-name="Rectangle 129" width="38" height="3" rx="1.5" transform="translate(6.118 38.504)" fill="#fff"/>
      <rect id="Rectangle_130-3" data-name="Rectangle 130" width="31" height="3" rx="1.5" transform="translate(6.118 44.504)" fill="#fff"/>
    </g>
    <g id="Group_21" data-name="Group 21" transform="translate(1205.882 479.496)">
      <rect id="Rectangle_128-4" data-name="Rectangle 128" width="58" height="49" rx="4" transform="translate(0.118 8.504)" fill="#037fff"/>
      <rect id="Rectangle_129-4" data-name="Rectangle 129" width="38" height="3" rx="1.5" transform="translate(6.118 38.504)" fill="#fff"/>
      <rect id="Rectangle_130-4" data-name="Rectangle 130" width="31" height="3" rx="1.5" transform="translate(6.118 44.504)" fill="#fff"/>
    </g>
  </g>
</svg>
