<svg xmlns="http://www.w3.org/2000/svg" width="122" height="126" viewBox="0 0 122 126">
  <g id="post-lay-1" transform="translate(-479 -415)">
    <g id="Group_2" data-name="Group 2" transform="translate(479 415)">
      <rect id="Rectangle_128" data-name="Rectangle 128" width="59" height="46" rx="4" fill="#037fff"/>
      <rect id="Rectangle_129" data-name="Rectangle 129" width="50" height="4" rx="2" transform="translate(0 48)" fill="#037fff"/>
      <rect id="Rectangle_130" data-name="Rectangle 130" width="31" height="4" rx="2" transform="translate(0 54)" fill="#037fff"/>
    </g>
    <g id="Group_7" data-name="Group 7" transform="translate(479 482.111)">
      <rect id="Rectangle_128-2" data-name="Rectangle 128" width="59" height="46" rx="4" transform="translate(0 -0.111)" fill="#037fff"/>
      <rect id="Rectangle_129-2" data-name="Rectangle 129" width="50" height="4" rx="2" transform="translate(0 47.889)" fill="#037fff"/>
      <rect id="Rectangle_130-2" data-name="Rectangle 130" width="31" height="5" rx="2.5" transform="translate(0 53.889)" fill="#037fff"/>
    </g>
    <g id="Group_3" data-name="Group 3" transform="translate(542.625 415)">
      <rect id="Rectangle_128-3" data-name="Rectangle 128" width="58" height="46" rx="4" transform="translate(0.375)" fill="#037fff"/>
      <rect id="Rectangle_129-3" data-name="Rectangle 129" width="49" height="4" rx="2" transform="translate(0.375 48)" fill="#037fff"/>
      <rect id="Rectangle_130-3" data-name="Rectangle 130" width="31" height="4" rx="2" transform="translate(0.375 54)" fill="#037fff"/>
    </g>
    <g id="Group_8" data-name="Group 8" transform="translate(542.625 482.111)">
      <rect id="Rectangle_128-4" data-name="Rectangle 128" width="58" height="46" rx="4" transform="translate(0.375 -0.111)" fill="#037fff"/>
      <rect id="Rectangle_129-4" data-name="Rectangle 129" width="49" height="4" rx="2" transform="translate(0.375 47.889)" fill="#037fff"/>
      <rect id="Rectangle_130-4" data-name="Rectangle 130" width="31" height="5" rx="2.5" transform="translate(0.375 53.889)" fill="#037fff"/>
    </g>
  </g>
</svg>
