<svg xmlns="http://www.w3.org/2000/svg" width="186" height="122" viewBox="0 0 186 122">
  <g id="post-lay-2" transform="translate(-636 -415)">
    <g id="Group_6" data-name="Group 6" transform="translate(635.882 415)">
      <rect id="Rectangle_128" data-name="Rectangle 128" width="58" height="58" rx="4" transform="translate(0.118)" fill="#037fff"/>
      <rect id="Rectangle_129" data-name="Rectangle 129" width="38" height="3" rx="1.5" transform="translate(6.118 40)" fill="#fff"/>
      <rect id="Rectangle_130" data-name="Rectangle 130" width="31" height="3" rx="1.5" transform="translate(6.118 46)" fill="#fff"/>
    </g>
    <g id="Group_6-2" data-name="Group 6" transform="translate(700.378 415)">
      <rect id="Rectangle_128-2" data-name="Rectangle 128" width="58" height="58" rx="4" transform="translate(-0.378)" fill="#037fff"/>
      <rect id="Rectangle_129-2" data-name="Rectangle 129" width="37" height="3" rx="1.5" transform="translate(4.622 42)" fill="#fff"/>
      <rect id="Rectangle_130-2" data-name="Rectangle 130" width="30" height="3" rx="1.5" transform="translate(4.622 48)" fill="#fff"/>
    </g>
    <g id="Group_6-3" data-name="Group 6" transform="translate(764.003 415)">
      <rect id="Rectangle_128-3" data-name="Rectangle 128" width="58" height="58" rx="4" transform="translate(-0.003)" fill="#037fff"/>
      <rect id="Rectangle_129-3" data-name="Rectangle 129" width="38" height="3" rx="1.5" transform="translate(6.997 40)" fill="#fff"/>
      <rect id="Rectangle_130-3" data-name="Rectangle 130" width="31" height="3" rx="1.5" transform="translate(6.997 46)" fill="#fff"/>
    </g>
    <g id="Group_6-4" data-name="Group 6" transform="translate(635.882 479.496)">
      <rect id="Rectangle_128-4" data-name="Rectangle 128" width="58" height="58" rx="4" transform="translate(0.118 -0.496)" fill="#037fff"/>
      <rect id="Rectangle_129-4" data-name="Rectangle 129" width="38" height="3" rx="1.5" transform="translate(6.118 38.504)" fill="#fff"/>
      <rect id="Rectangle_130-4" data-name="Rectangle 130" width="31" height="3" rx="1.5" transform="translate(6.118 44.504)" fill="#fff"/>
    </g>
    <g id="Group_6-5" data-name="Group 6" transform="translate(700.378 479.496)">
      <rect id="Rectangle_128-5" data-name="Rectangle 128" width="58" height="58" rx="4" transform="translate(-0.378 -0.496)" fill="#037fff"/>
      <rect id="Rectangle_129-5" data-name="Rectangle 129" width="37" height="3" rx="1.5" transform="translate(6.622 38.504)" fill="#fff"/>
      <rect id="Rectangle_130-5" data-name="Rectangle 130" width="30" height="3" rx="1.5" transform="translate(6.622 44.504)" fill="#fff"/>
    </g>
    <g id="Group_6-6" data-name="Group 6" transform="translate(764.003 479.496)">
      <rect id="Rectangle_128-6" data-name="Rectangle 128" width="58" height="58" rx="4" transform="translate(-0.003 -0.496)" fill="#037fff"/>
      <rect id="Rectangle_129-6" data-name="Rectangle 129" width="38" height="3" rx="1.5" transform="translate(6.997 38.504)" fill="#fff"/>
      <rect id="Rectangle_130-6" data-name="Rectangle 130" width="31" height="3" rx="1.5" transform="translate(6.997 44.504)" fill="#fff"/>
    </g>
  </g>
</svg>
