<svg xmlns="http://www.w3.org/2000/svg" width="251" height="122" viewBox="0 0 251 122">
  <g id="post-lay-5" transform="translate(-479 -585)">
    <g id="Group_23" data-name="Group 23" transform="translate(478.882 585)">
      <rect id="Rectangle_128" data-name="Rectangle 128" width="121" height="122" rx="6" transform="translate(0.118)" fill="#037fff"/>
      <rect id="Rectangle_129" data-name="Rectangle 129" width="82" height="6" rx="3" transform="translate(13.118 89)" fill="#fff"/>
      <rect id="Rectangle_130" data-name="Rectangle 130" width="56" height="6" rx="3" transform="translate(13.118 101)" fill="#fff"/>
    </g>
    <g id="Group_24" data-name="Group 24" transform="translate(607.003 585)">
      <rect id="Rectangle_128-2" data-name="Rectangle 128" width="58" height="58" rx="4" transform="translate(-0.003)" fill="#037fff"/>
      <rect id="Rectangle_129-2" data-name="Rectangle 129" width="38" height="3" rx="1.5" transform="translate(4.997 42)" fill="#fff"/>
      <rect id="Rectangle_130-2" data-name="Rectangle 130" width="31" height="3" rx="1.5" transform="translate(4.997 48)" fill="#fff"/>
    </g>
    <g id="Group_26" data-name="Group 26" transform="translate(672.003 585)">
      <rect id="Rectangle_128-3" data-name="Rectangle 128" width="58" height="58" rx="4" transform="translate(-0.003)" fill="#037fff"/>
      <rect id="Rectangle_129-3" data-name="Rectangle 129" width="38" height="3" rx="1.5" transform="translate(4.997 42)" fill="#fff"/>
      <rect id="Rectangle_130-3" data-name="Rectangle 130" width="31" height="3" rx="1.5" transform="translate(4.997 48)" fill="#fff"/>
    </g>
    <g id="Group_22" data-name="Group 22" transform="translate(607.003 649.496)">
      <rect id="Rectangle_128-4" data-name="Rectangle 128" width="58" height="58" rx="4" transform="translate(-0.003 -0.496)" fill="#037fff"/>
      <rect id="Rectangle_129-4" data-name="Rectangle 129" width="38" height="3" rx="1.5" transform="translate(4.997 40.504)" fill="#fff"/>
      <rect id="Rectangle_130-4" data-name="Rectangle 130" width="31" height="3" rx="1.5" transform="translate(4.997 46.504)" fill="#fff"/>
    </g>
    <g id="Group_25" data-name="Group 25" transform="translate(672.003 649.496)">
      <rect id="Rectangle_128-5" data-name="Rectangle 128" width="58" height="58" rx="4" transform="translate(-0.003 -0.496)" fill="#037fff"/>
      <rect id="Rectangle_129-5" data-name="Rectangle 129" width="38" height="3" rx="1.5" transform="translate(4.997 40.504)" fill="#fff"/>
      <rect id="Rectangle_130-5" data-name="Rectangle 130" width="31" height="3" rx="1.5" transform="translate(4.997 46.504)" fill="#fff"/>
    </g>
  </g>
</svg>
